<?xml version="1.0" encoding="UTF-8" standalone="no"?>
<!-- Created with Inkscape (http://www.inkscape.org/) -->

<svg
   version="1.1"
   id="svg2"
   viewBox="0 0 3333.3333 2666.6667"
   sodipodi:docname="19212782_Curious analyst investigating question mark with magnifier.eps"
   xmlns:inkscape="http://www.inkscape.org/namespaces/inkscape"
   xmlns:sodipodi="http://sodipodi.sourceforge.net/DTD/sodipodi-0.dtd"
   xmlns="http://www.w3.org/2000/svg"
   xmlns:svg="http://www.w3.org/2000/svg">
  <defs
     id="defs6" />
  <sodipodi:namedview
     id="namedview4"
     pagecolor="#ffffff"
     bordercolor="#000000"
     borderopacity="0.25"
     inkscape:showpageshadow="2"
     inkscape:pageopacity="0.0"
     inkscape:pagecheckerboard="0"
     inkscape:deskcolor="#d1d1d1" />
  <g
     id="g8"
     inkscape:groupmode="layer"
     inkscape:label="ink_ext_XXXXXX"
     transform="matrix(1.3333333,0,0,-1.3333333,0,2666.6667)">
    <g
       id="g10"
       transform="scale(0.1)">
      <path
         d="m 11956.9,18678.8 c -121,68.3 -247,115 -374.5,138.7 l 18.2,107 c 138.4,-25.8 274.9,-76.2 405.5,-150 l -49.2,-95.7 m -1134.3,0 -56,91.5 c 123,82.4 258.5,136 402.8,159.3 l 15.8,-107.4 c -129.9,-21 -251.9,-69.2 -362.6,-143.4 m 1740.1,-559.6 c -90.7,119.1 -184.3,224.6 -278.3,313.5 l 69.7,80.6 c 98.1,-92.9 195.6,-202.6 289.8,-326.3 l -81.2,-67.8 m -2242.9,-83 -93.1,48.1 c 68.1,144.6 143.7,272.4 224.7,380 l 81.5,-67.3 c -76.4,-101.6 -148.2,-223 -213.1,-360.8 M 13008,17391 c -68.3,134.7 -138,261.1 -207.3,375.7 l 87.7,58.1 c 70.7,-116.9 141.8,-245.7 211.3,-382.8 l -91.7,-51 m -2960.3,-169.2 -100.76,26.4 c 36.21,151.7 76.16,294.7 118.66,424.9 l 98.2,-35.2 c -41.5,-127.3 -80.6,-267.3 -116.1,-416.1 m 3311.9,-620.4 c -55.8,140.5 -112.1,274.9 -167.2,399.5 l 94.2,45.7 c 55.7,-125.9 112.5,-261.6 168.8,-403.4 l -95.8,-41.8 m -3467.98,-235.3 -102.76,15.5 c 21,152.2 44.09,298.5 68.62,435 l 102.03,-20.1 c -24.25,-135 -47.1,-279.8 -67.89,-430.4 m 3766.68,-580.2 c -50.1,146.6 -97.4,280.6 -144.5,409.7 l 97,38.8 c 47.3,-129.8 94.9,-264.5 145.3,-411.8 l -97.8,-36.7 m -3861.13,-288.5 -103.42,9.6 c 12.95,152.5 27.02,299.8 41.84,437.8 l 103.17,-12.2 c -14.73,-137.1 -28.72,-283.5 -41.59,-435.2 m 9300.93,-183.3 c -128.6,56.7 -258.7,91.9 -386.9,104.4 l 9.7,108.2 c 138.7,-13.5 279.2,-51.4 417.5,-112.5 l -40.3,-100.1 m -1132.8,-133.2 -59.5,89 c 127.6,93.6 256.6,162.8 383.3,205.9 l 32,-103.4 c -116.8,-39.7 -236.6,-104.2 -355.8,-191.5 m -4034.9,-223.4 c -51.6,161.8 -94.2,293.6 -133.9,415 l 98.2,35.3 c 39.8,-121.7 82.5,-253.8 134.2,-415.8 l -98.5,-34.5 m 5826.2,-135.3 c -100,107.2 -203.4,201.8 -307.6,281.2 l 61.1,87.9 c 108.9,-83 216.8,-181.7 320.8,-293.2 l -74.3,-75.9 M 5578.53,14646.4 c -129.55,67.5 -256.98,110.6 -378.75,128.1 l 14.1,107.7 c 132.97,-19.1 271.22,-65.7 410.91,-138.4 l -46.26,-97.4 m 4158.22,-22.7 -103.64,6.5 c 8.99,157.9 17.92,301.4 27.29,438.6 l 103.56,-7.8 c -9.35,-136.7 -18.25,-279.7 -27.21,-437.3 m 7642.95,-42.8 -80.7,68.5 c 97.4,125.8 189.7,234 282.1,330.9 l 73.4,-76.9 c -89.8,-94.1 -179.7,-199.6 -274.8,-322.5 m -12921.07,-33.2 -62.97,86.4 c 124,99 253.04,170.5 383.54,212.3 l 30.38,-104 c -118.7,-38 -236.77,-103.5 -350.95,-194.7 m 15796.87,-409.8 c -74.4,127.1 -152.4,247.3 -231.8,357.3 l 82.8,65.6 c 81.5,-112.8 161.4,-236 237.5,-366.1 l -88.5,-56.8 m -14023.6,-4.6 c -106.11,108.1 -210.45,203.7 -310.11,284 l 63.31,86.1 c 102.84,-82.8 210.25,-181.1 319.23,-292.2 l -72.43,-77.9 m 7964.7,-7.6 c -47.6,146.1 -94.3,292.2 -133.8,415.9 l 98.5,34.4 c 39.4,-123.5 86,-269.4 133.6,-415.2 l -98.3,-35.1 m -10271.01,-221.1 -87.5,58.5 c 81.59,133.7 165.71,254.5 250.02,359 l 79.32,-70.1 c -81.35,-100.8 -162.72,-217.7 -241.84,-347.4 m 12968.51,-30.7 -86.6,59.9 c 86.8,137.4 164.3,256.3 237.2,363.4 l 84.6,-63.1 c -72.2,-106 -149.1,-223.9 -235.2,-360.2 m -7201.95,-126 -103.7,5.4 c 7,145.3 13.94,290.5 21.35,438.4 l 103.69,-5.7 c -7.42,-147.8 -14.37,-293 -21.34,-438.1 m -2906.7,-262.5 c -94.21,122.5 -181.89,231.4 -268.08,333.1 l 77.67,72.2 c 87.29,-103.1 176.01,-213.3 271.26,-337.1 l -80.85,-68.2 m 13847.15,-118.6 c -55.8,136.1 -114.9,268.4 -175.5,393 l 92.5,49.3 c 61.7,-126.7 121.7,-261.1 178.4,-399.4 l -95.4,-42.9 m -6148.8,-67.8 c -47,123.5 -95.6,258.2 -148.6,411.9 l 97.7,36.9 c 52.5,-152.5 100.7,-286.2 147.3,-408.5 l -96.4,-40.3 m 1955,-160.7 -86.8,59.7 c 73.8,117.4 150,241.8 227.2,367.5 l 87.3,-58.7 c -77.3,-126 -153.6,-250.6 -227.7,-368.5 m -12898.45,-0.1 -94.98,43.9 c 56.99,135.2 117.73,267.9 182.27,397.6 l 92.06,-50.2 c -63.51,-127.7 -123.26,-258.3 -179.35,-391.3 m 6105.65,-267.5 -103.61,7 c 7.86,127.3 15.87,270.5 24.47,437.6 l 103.68,-5.9 c -8.62,-167.5 -16.65,-311 -24.54,-438.7 m -2355.08,-80.8 c -94.98,135.9 -174.15,247.5 -249.13,351.1 l 82.77,65.6 c 75.33,-104.1 154.81,-216.1 250.15,-352.5 l -83.79,-64.2 M 20918,12550.8 c -41.8,140.9 -86.5,279.5 -132.7,412.1 l 97.6,37.2 c 46.7,-134.2 91.9,-274.5 134.2,-417 l -99.1,-32.3 m -6063.5,-48.1 c -67.2,108.5 -133.8,236.3 -203.6,390.7 l 93.9,46.5 c 67.7,-150 132.1,-273.6 196.8,-378.1 l -87.1,-59.1 m 1080.6,-74.7 -76.3,73.7 c 78.8,89.3 163.1,199.4 258,336.6 l 84.1,-63.7 c -97.3,-140.8 -184.2,-254.2 -265.8,-346.6 m -12682.97,-103.6 -99.29,31.7 c 41.25,141.3 86.51,281.7 134.52,417.5 l 97.36,-37.7 c -47.31,-133.8 -91.92,-272.3 -132.59,-411.5 m 12133.37,-234.2 c -80.9,0 -160.2,25.2 -235.8,75.1 l 55.3,92 c 113.6,-75.1 225.3,-75.2 346,-15.4 l 44.6,-98.1 c -71.3,-35.6 -142,-53.6 -210.1,-53.6 m -7601.17,-9 c -84.41,119.3 -171.93,245.5 -247.36,354.3 l 84.05,63.8 c 75.27,-108.6 162.62,-234.5 246.74,-353.4 l -83.43,-64.7 m 1786.28,-88.3 -102.98,13.9 c 15.95,129.7 30.25,271.8 43.7,434.3 l 103.43,-9.4 c -13.58,-164 -28.02,-307.6 -44.15,-438.8 m 11560.69,-283.3 c -30.8,143.5 -63.9,285.8 -98.6,423 l 100.4,27.8 c 35,-138.5 68.4,-282.1 99.5,-427.1 l -101.3,-23.7 m -18078.93,-228.7 -101.92,20.7 c 26.89,145.1 57.33,289.8 90.46,430 l 100.78,-26.1 c -32.7,-138.5 -62.76,-281.3 -89.32,-424.6 m 5256.46,-89.1 c -82.71,96.4 -171.1,207.4 -270.21,339.2 l 81.58,67.2 c 97.72,-129.9 184.68,-239.2 265.87,-333.8 l -77.24,-72.6 m 1058.08,-264.5 -92.46,49.5 c 47.53,97.4 89.53,232.6 124.88,401.8 l 101.42,-23.2 c -37.76,-180.8 -81.54,-320.8 -133.84,-428.1 m -360.22,-258.6 c -144.26,23.9 -248.61,92.6 -393.16,211.3 l 65.62,84.3 c 126.64,-103.8 218.1,-166 338.61,-187.5 l -11.07,-108.1 m 12279.01,-15.3 c -21.6,145 -45.4,289.5 -70.5,429.5 l 102,20.1 c 25.4,-141.1 49.3,-286.7 71,-432.9 l -102.5,-16.7 m -18353.22,-233.2 -103.31,10.8 c 14.11,147 31.3,293.9 51.11,436.7 l 102.75,-15.6 c -19.6,-141.2 -36.6,-286.5 -50.55,-431.9 M 21390.5,9988.4 c -13.9,145.9 -29.6,291.7 -46.7,433.3 l 103,13.6 c 17.2,-142.5 33,-289.2 47,-436.2 l -103.3,-10.7 m -18507.36,-237.2 -103.8,2.2 c 2.89,147.6 8.46,295.4 16.57,439.3 l 103.65,-6.4 c -8.04,-142.6 -13.56,-288.9 -16.42,-435.1 M 21452.5,9118.4 c -7.1,146 -15.9,292.5 -26,435.4 l 103.5,8.1 c 10.2,-143.8 19,-291.1 26.2,-437.9 l -103.7,-5.6 M 2791.92,8874.8 c -6.89,147.1 -11.45,294.8 -13.58,439.1 l 103.82,1.7 c 2.1,-143.1 6.63,-289.6 13.45,-435.5 l -103.69,-5.3 M 21477.1,8246 c -1.2,146.2 -3.9,293 -7.9,436.4 l 103.8,3.2 c 4,-144.1 6.7,-291.7 7.9,-438.6 l -103.8,-1 M 2859.18,7999 c -15.47,146.3 -28.94,293.4 -40.04,437.3 l 103.49,8.8 c 11.01,-142.9 24.38,-288.9 39.75,-434.1 l -103.2,-12 m 18712.92,-629.2 -103.7,3.2 c 4,146.1 6.8,292.9 8.3,436.5 l 103.8,-1.1 c -1.5,-144.3 -4.3,-291.8 -8.4,-438.6 M 2974.82,7129.1 c -23.09,144.8 -44.47,290.8 -63.53,434.1 l 102.82,15 c 18.95,-142.3 40.18,-287.4 63.11,-431.2 l -102.4,-17.9 m 18558.48,-635.3 -103.6,6.8 c 8.8,145.5 16.5,292.2 22.9,436.1 l 103.7,-5.1 c -6.4,-144.5 -14.2,-291.8 -23,-437.8 M 3134.03,6266.9 c -29.99,143.1 -58.52,287.8 -84.81,430 l 101.94,20.7 c 26.12,-141.4 54.48,-285.2 84.27,-427.4 l -101.4,-23.3 m 18333.17,-647.3 -103.3,10.3 c 13.1,145.5 25.2,291.9 36.1,435.1 l 103.5,-8.6 c -10.9,-143.7 -23.1,-290.7 -36.3,-436.8 M 3333.64,5414.1 c -36.34,140.4 -71.57,283.5 -104.74,425.1 l 100.83,25.9 c 32.98,-140.8 68,-283 104.13,-422.6 l -100.22,-28.4 m 18042.56,-666 -103,13.3 c 17.1,145 33.4,291 48.3,433.9 l 103.2,-11.8 c -15,-143.5 -31.3,-289.9 -48.5,-435.4 M 3573.09,4572.2 c -42.45,136.2 -84.45,277.3 -124.83,419.4 l 99.52,31 c 40.12,-141.2 81.84,-281.4 124.01,-416.6 l -98.7,-33.8"
         style="fill:#dce6ff;fill-opacity:1;fill-rule:nonzero;stroke:none"
         id="path14" />
      <path
         d="m 5551.57,3984.2 c 0,0 -2528.64,6501.2 -708.95,7948.9 592.77,471.6 1202.87,206.7 1850.73,-58.2 681.45,-278.6 1404.7,-557.3 2193.52,21.2 1369.93,1004.6 934.43,4061.1 3119.23,4483.6 1198.7,231.8 1941.3,-1007 2621.7,-2245.9 713.9,-1299.8 1359.4,-2599.7 2391.6,-2200.7 2446.2,945.5 4879.5,-973.9 2776.7,-7961.3 l -14244.53,12.4"
         style="fill:#d4e8ff;fill-opacity:1;fill-rule:nonzero;stroke:none"
         id="path16" />
      <path
         d="m 22034.2,6225.5 c -861.6,133.7 -721,-1074.1 -1949.1,-1074.1 -1122.8,0 -1482,4599.8 -2299,3284.9 C 13597.9,1695.4 16029.9,11303 12699,11425.1 11192.9,11480.3 10189.3,9799 9819.23,6822.2 9282.76,4131 8038.61,8874.8 6758.25,8433.7 5944.51,8153.4 6037.71,5151.4 4914.85,5151.4 3686.76,5151.4 3827.35,6359.2 2965.79,6225.5 2038.17,6081.6 1761.1,3943.7 1761.1,3943.7 h 21477.8 c 0,0 -277.1,2137.9 -1204.7,2281.8"
         style="fill:#eef7ff;fill-opacity:1;fill-rule:nonzero;stroke:none"
         id="path18" />
      <path
         d="m 21271.3,4918.1 c -792.7,57 -663.3,-458.7 -1793.2,-458.7 -1032.9,0 -1004.6,1155.9 -1695.8,1401.6 -1273,452.4 -2322.5,-1837.3 -2816,-688.2 -937.4,3049.2 -3671.3,4578.4 -4932.5,0 C 9540.21,4023.7 8386.07,6074.2 7217.72,5861 6498.56,5729.7 6554.84,4459.4 5521.85,4459.4 c -1129.82,0 -1000.48,515.7 -1793.1,458.7 -853.38,-61.5 -1108.27,-974.4 -1108.27,-974.4 H 22379.5 c 0,0 -254.9,912.9 -1108.2,974.4"
         style="fill:#dce6ff;fill-opacity:1;fill-rule:nonzero;stroke:none"
         id="path20" />
      <path
         d="m 1777.08,3943.7 c 0,0 -150.69,-666.8 473.57,-833.7 853.86,-228.3 5865.89,-828.2 4648.29,-1284.1 -687.33,-257.3 350.88,-606.7 3698.76,-735.4 3347.8,-128.699 9092.4,375.5 7160.6,1121.4 -1931.9,746 5938.9,180.2 5459.5,1731.8 H 1777.08"
         style="fill:#cfddf9;fill-opacity:1;fill-rule:nonzero;stroke:none;transform:translateY(10px)"
         id="path22" />
      <path
         d="m 12063.1,9103.9 c 112.2,-958.3 -1310.1,-1149.3 -1454.8,-195.4 -112.1,958.4 1310.2,1149.3 1454.8,195.4"
         style="fill:#7689d6;fill-opacity:1;fill-rule:nonzero;stroke:none"
         id="path24" />
      <path
         d="m 8436.11,15059.7 c -527.49,1743 860.99,3395.4 2667.39,3230.7 2375.4,-261.2 2803.5,-3339.7 1415,-4924.1 -664.4,-681.5 -1274.9,-1864.1 -1239.9,-2714.9 3,-503.9 -409.6,-464 -560.7,-15 -529.5,2080.4 622.6,2633.5 1112.9,4268.3 382.5,2643.3 -2535.86,2231.1 -3028.12,164.2 -54.08,-177.1 -315.98,-195.8 -366.57,-9.2"
         style="fill:#7689d6;fill-opacity:1;fill-rule:nonzero;stroke:none"
         id="path26" />
      <path
         d="m 15016,12489 c -82.2,-484 -804,-374 -738.4,112.4 82.2,484 804.1,374 738.4,-112.4"
         style="fill:#fcb4b4;fill-opacity:1;fill-rule:nonzero;stroke:none"
         id="path28" />
      <path
         d="m 14096,15915.6 c -8.4,926.5 905.7,1534.9 1764.2,1196.3 1122.6,-467 891.7,-2031.4 -12.7,-2606.7 -421.9,-237.8 -889,-728 -993.5,-1148.5 -70.5,-246.4 -266.3,-168 -275.9,72.9 38.7,1091.5 680.4,1196.9 1153.4,1925.1 564.5,1236.1 -919.4,1451.9 -1455.2,513 -51.7,-78.8 -182.2,-50.5 -180.3,47.9"
         style="fill:#fcb4b4;fill-opacity:1;fill-rule:nonzero;stroke:none"
         id="path30" />
      <path
         d="m 9129.08,8841.5 c 142.62,-329.7 -343.94,-550.1 -497.67,-225.5 -142.62,329.6 343.95,550 497.67,225.5"
         style="fill:#fcb4b4;fill-opacity:1;fill-rule:nonzero;stroke:none"
         id="path32" />
      <path
         d="m 7198.29,10576.1 c -374.71,564.8 -56.74,1302.5 604.82,1437.3 874.74,161.3 1357.04,-890.3 1031.8,-1603.8 -163.87,-314.1 -254.82,-801 -151.22,-1100.6 55.02,-179.2 -96.34,-209.2 -198.28,-65.3 -411.57,684.8 -60.09,1005.4 -60.43,1640.7 -146.77,983.2 -1142.9,523.7 -1097.01,-265.8 -0.31,-68.9 -91.66,-103.7 -129.68,-42.5"
         style="fill:#fcb4b4;fill-opacity:1;fill-rule:nonzero;stroke:none"
         id="path34" />
      <path
         d="m 17109.2,11527.2 c -590.1,112.7 -478.1,512.4 -1049.3,313.2 0,0 -511.9,409.4 -576.4,-561.9 -52.1,-783.4 331.8,-1160.7 928.5,-1482.6 708,-382 1821.3,34.1 1775,918.4 -32.2,614.6 -498.7,702.3 -1077.8,812.9"
         style="fill:#1d3f70;fill-opacity:1;fill-rule:nonzero;stroke:none"
         id="path36" />
      <path
         d="m 15617,10313.7 c -831.1,-570.9 -1444.8,-363.2 -2079,359.8 -83.9,141.8 -291.3,62.3 -228.5,-96.9 10.8,-26.4 31.7,-59.4 44,-84.8 584.7,-1071.2 1619.5,-1345.7 2612.8,-602.7 276.1,229.5 -70.2,651.8 -349.3,424.6"
         style="fill:#f99370;fill-opacity:1;fill-rule:nonzero;stroke:none"
         id="path38" />
      <path
         d="m 15878.4,10453.9 c 0,0 -231.3,-14.6 -344.1,-104.6 -112.7,-89.9 -433.6,-246.9 -671.6,-279.5 -238.1,-32.6 -631.6,90.9 -778.9,209.1 -147.3,118.3 -250.5,238.6 -348.4,172.9 0,0 -74.9,-105.1 -269.8,-145.9 0,0 -98.9,-268 284.8,-596.3 374.5,-320.4 1191.6,-693.3 2121,-222.3 l 7,966.6"
         style="fill:#23659b;fill-opacity:1;fill-rule:nonzero;stroke:none"
         id="path40" />
      <path
         d="m 15861.3,10576.6 17.1,-122.7 c 62.9,-204.6 335,-44.3 380,36.8 0,0 -24.6,116.2 -29.3,170.8 l -367.8,-84.9"
         style="fill:#f99370;fill-opacity:1;fill-rule:nonzero;stroke:none"
         id="path42" />
      <path
         d="m 18345.6,2865.5 570.2,699.4 c -27.4,42.2 -224.6,145.6 -281.4,203.1 -40.7,29 -495.8,492.4 -544.3,538.8 l -327.4,-401.5 569.7,-356.4 c 67.5,-42.3 95.4,-126.5 66.8,-200.9 -56,-169.1 -199.9,-296.8 -165.8,-462.1 16.4,-48.6 79.8,-60.1 112.2,-20.4"
         style="fill:#f99370;fill-opacity:1;fill-rule:nonzero;stroke:none"
         id="path44" />
      <path
         d="m 18865.8,3640.9 c 21.3,-22.1 38.9,-47.3 50,-76 l -574.9,-705.2 c -27.9,-34.3 -81.9,-31.6 -105,6.2 -53.8,88.4 -87.8,270.8 160.2,609.7 0,0 123,83.7 238.3,292.4 0,0 145.1,-37.3 231.4,-127.1"
         style="fill:#1d3f70;fill-opacity:1;fill-rule:nonzero;stroke:none"
         id="path46" />
      <path
         d="m 18197.7,3082.2 c 32.8,-8.4 55.3,37 162.9,5.7 9.7,-3 20,2.5 23,12.2 -6.5,69.2 -252.6,24.7 -185.9,-17.9"
         style="fill:#e8c0a6;fill-opacity:1;fill-rule:nonzero;stroke:none"
         id="path48" />
      <path
         d="m 18239.8,3211.9 c 4.8,-2.8 10.9,-3.4 16.5,-1 0.8,0.4 88,36.6 179.9,-0.5 22,-9.3 36.1,25.6 13.8,34.2 -106.6,43.1 -204.2,1.9 -208.3,0.2 -13.8,-5.5 -14.8,-26 -1.9,-32.9"
         style="fill:#e8c0a6;fill-opacity:1;fill-rule:nonzero;stroke:none"
         id="path50" />
      <path
         d="m 18318.2,3358.8 c 24.4,-8.8 89.4,31.4 206.1,-9.6 22.2,-8.5 35.3,26.8 12.6,34.6 -118.6,38.2 -261.8,23 -218.7,-25"
         style="fill:#e8c0a6;fill-opacity:1;fill-rule:nonzero;stroke:none"
         id="path52" />
      <path
         d="m 18235.1,2867.2 630.7,773.7 c 21.3,-22.1 38.9,-47.3 50,-76 l -574.9,-705.2 c -28.3,-34.8 -83.4,-31.3 -105.8,7.5"
         style="fill:#395b96;fill-opacity:1;fill-rule:nonzero;stroke:none"
         id="path54" />
      <path
         d="m 15532.7,2724.6 901.3,9.9 c 14.8,48.2 -31.9,265.5 -24.2,346 0.3,33.9 8.9,219.3 12.1,253.1 l -67.5,508.5 -397.3,-4.4 90.9,-665.5 c 10.8,-79 -36,-154.3 -111.5,-179.9 -165.6,-65 -354.6,-36.8 -460.6,-167.4 -27.5,-43.9 5,-100.9 56.8,-100.3"
         style="fill:#f99370;fill-opacity:1;fill-rule:nonzero;stroke:none"
         id="path56" />
      <path
         d="m 16460.4,2821.5 c -3.3,-30.5 -11.4,-60.2 -26.4,-87 l -910.1,-10 c -44.2,-0.5 -76.7,42.7 -62.5,84.6 33.5,97.9 151.9,240.7 571.1,267.3 0,0 143.2,-40.9 377.4,4.1 0,0 64.3,-135.3 50.5,-259"
         style="fill:#1d3f70;fill-opacity:1;fill-rule:nonzero;stroke:none"
         id="path58" />
      <path
         d="m 15728.9,2844.1 c 12.8,-0.2 22.3,13.8 17,25.6 -40.6,97.1 -114.8,126.4 -118,127.6 -22.1,8.8 -35.6,-26.2 -13.2,-34.4 2.8,-1.2 63,-25.7 97.2,-107.4 3,-7.1 9.8,-11.4 17,-11.4"
         style="fill:#e8c0a6;fill-opacity:1;fill-rule:nonzero;stroke:none"
         id="path60" />
      <path
         d="m 15872,2863 c 12.2,-0.2 21.6,12.4 17.6,24.1 -33.8,122.3 -193.8,212.6 -150,127.1 1.1,-0.5 84.6,-44.2 114.9,-138.4 2.5,-7.8 9.7,-12.8 17.5,-12.8"
         style="fill:#e8c0a6;fill-opacity:1;fill-rule:nonzero;stroke:none"
         id="path62" />
      <path
         d="m 16034.8,2884.8 c 12.5,-0.2 21.9,13 17.4,24.7 -39.9,110.7 -127.4,168.1 -131.1,170.5 -19.8,13.2 -40.3,-18.2 -20,-30.9 1.2,-0.8 81,-53.8 116.4,-152.1 2.7,-7.5 9.8,-12.2 17.3,-12.2"
         style="fill:#e8c0a6;fill-opacity:1;fill-rule:nonzero;stroke:none"
         id="path64" />
      <path
         d="m 15461.9,2810.6 998.5,10.9 c -3.3,-30.5 -11.4,-60.2 -26.4,-87 l -910.1,-10 c -44.8,-0.6 -77.5,44 -62,86.1"
         style="fill:#395b96;fill-opacity:1;fill-rule:nonzero;stroke:none"
         id="path66" />
      <path
         d="m 16219.7,11049.4 c -0.2,-6.6 -0.5,-13.3 -1.3,-19.8 -9.3,4.7 -5.6,-232.9 14.5,-403.4 -151.4,-91.9 -333.8,-81.1 -367.3,-78.3 -29.3,215.4 -32.9,414.4 -15.9,541.7 40,216.7 377.4,179.7 370,-40.2"
         style="fill:#e57d61;fill-opacity:1;fill-rule:nonzero;stroke:none"
         id="path68" />
      <path
         d="m 16464.8,11179.6 c -29.5,-167.6 -89,-356.1 -223.3,-465.3 h -0.2 c -54.2,-43.8 -120,-71.2 -189.4,-83.8 -390,-106.6 -848.7,362.3 -535.8,685.9 112.8,101.2 139,283.1 229.3,384.1 131.7,185.4 414.8,171.6 565.6,16.7 136.2,-140.1 180.7,-331.1 153.8,-537.6"
         style="fill:#f99370;fill-opacity:1;fill-rule:nonzero;stroke:none"
         id="path70" />
      <path
         d="m 15825,11292.5 c -15,29.4 31.6,52.2 45.7,22.4 14.9,-29.5 -31.6,-52.3 -45.7,-22.4"
         style="fill:#c16256;fill-opacity:1;fill-rule:nonzero;stroke:none"
         id="path72" />
      <path
         d="m 15611.6,11331.5 c -14.9,29.4 31.7,52.2 45.7,22.4 15,-29.4 -31.6,-52.2 -45.7,-22.4"
         style="fill:#c16256;fill-opacity:1;fill-rule:nonzero;stroke:none"
         id="path74" />
      <path
         d="m 16004.7,3210 c 306.9,-59.5 528.9,122.1 528.9,122.1 -18.2,63.1 -35.2,125.1 -51.5,188.2 h -0.1 c -564.6,2150 26.6,3280.6 26.6,3280.6 124.9,-1111.3 421.6,-2200.4 1493.8,-3160 45.1,-40.4 91.7,-80.6 139.6,-120.6 241.7,53.9 465.9,452.4 465.9,452.4 -37.7,44.3 -73.9,88.8 -108.4,133.3 -1186,1526.5 -586.3,3161.5 -1128.3,4172.5 -288.2,537.6 -1429.8,201.1 -1864.3,-301.5 -729,-2289.7 115.2,-4039.8 497.8,-4767"
         style="fill:#9358e0;fill-opacity:1;fill-rule:nonzero;stroke:none"
         id="path76" />
      <path
         d="m 15674.6,11110.3 c 15.7,-0.4 50,-6.8 49.4,14.5 -1.5,5.1 -6.9,8 -12,6.4 -32.4,-9.8 -77.9,7 -83.9,21.7 -2.1,5.2 4.9,10.1 11.1,13.4 54.4,26.3 126.5,177.1 76.6,142.5 -0.3,-1 -37.1,-100.1 -85.5,-125.4 -54.7,-36.6 1.4,-66.3 44.3,-73.1"
         style="fill:#c16256;fill-opacity:1;fill-rule:nonzero;stroke:none"
         id="path78" />
      <path
         d="m 18267.6,3732.1 34.6,32.6 c -9.4,10 -942.1,1005.6 -1205.9,1885 -264.4,881.2 -235,2330.3 -234.7,2344.8 l -47.5,1.1 c -0.4,-14.6 -29.9,-1471.1 236.6,-2359.6 267.1,-890.3 1207.5,-1893.9 1216.9,-1903.9"
         style="fill:#7640cc;fill-opacity:1;fill-rule:nonzero;stroke:none"
         id="path80" />
      <path
         d="m 16464.8,11179.6 c -29.5,-167.6 -89,-356.1 -223.3,-465.3 h -0.2 c 74.9,90.2 123.7,293.8 123.7,293.8 l -33.5,91.4 c -580.7,196.7 -524,664.4 -524,664.4 376.2,261.6 739.5,-200.6 657.3,-584.3"
         style="fill:#e57d61;fill-opacity:1;fill-rule:nonzero;stroke:none"
         id="path82" />
      <path
         d="m 15870.1,11804.7 c 0,0 -53.6,-461.3 465.9,-658.4 l 188.9,100.7 c 187.9,355.9 -135.6,887 -654.8,557.7"
         style="fill:#1d3f70;fill-opacity:1;fill-rule:nonzero;stroke:none"
         id="path84" />
      <path
         d="m 16481.6,11938.2 c -127.4,-438.2 -637.7,-298.1 -523.6,143.6 127.4,438.2 637.8,298.1 523.6,-143.6"
         style="fill:#1d3f70;fill-opacity:1;fill-rule:nonzero;stroke:none"
         id="path86" />
      <path
         d="m 16570.3,11093.2 c -40.7,-189.5 -279.3,-135.4 -234.3,53.1 40.7,189.4 279.2,135.4 234.3,-53.1"
         style="fill:#f99370;fill-opacity:1;fill-rule:nonzero;stroke:none"
         id="path88" />
      <path
         d="m 16508,11054.7 c 40.1,40.9 25.7,124.6 5.2,139.2 -37.6,30.7 -105.8,15.4 -101,-3.9 11.9,-19.3 51,20.8 87.8,-10.1 37.7,-28.6 -14.5,-108.9 8,-125.2"
         style="fill:#c16256;fill-opacity:1;fill-rule:nonzero;stroke:none"
         id="path90" />
      <path
         d="m 16418.3,11069.4 c 19.7,0.8 28,72.3 103.7,78.8 5.3,0.3 9.4,4.8 9.1,10.1 -52.5,40.7 -148.8,-92.3 -112.8,-88.9"
         style="fill:#c16256;fill-opacity:1;fill-rule:nonzero;stroke:none"
         id="path92" />
      <path
         d="m 16463.8,11006.6 c 0,-28 -44,-27.3 -43.2,0.7 0,28 44,27.4 43.2,-0.7"
         style="fill:#f4d4be;fill-opacity:1;fill-rule:nonzero;stroke:none"
         id="path94" />
      <path
         d="m 16533.6,3332 c 0,0 -222,-181.5 -528.9,-122 0,0 -34.2,56.1 -88.4,160.7 0,0 368.5,-34.7 565.7,149.6 h 0.1 c 16.1,-61.9 33.2,-124.6 51.5,-188.3"
         style="fill:#7640cc;fill-opacity:1;fill-rule:nonzero;stroke:none"
         id="path96" />
      <path
         d="m 16482.1,3520.3 c 5.6,-21.8 11.4,-43.6 17.3,-65.6 h -109.8 c -384.4,1151.5 -451.6,3048 119,3346.1 0,0 -591.2,-1130.6 -26.6,-3280.5 h 0.1"
         style="fill:#7640cc;fill-opacity:1;fill-rule:nonzero;stroke:none"
         id="path98" />
      <path
         d="m 16122,3274.9 c -301.8,688.1 -503.1,1359.9 -598.4,1996.7 -76.3,509.9 -85.1,998.6 -26.2,1452.7 100.4,774.6 367.6,1186.1 370.2,1190.2 l 35.1,-23.2 c -2.6,-4 -265.3,-409.4 -364,-1175.4 -91.3,-707.4 -57.4,-1875.7 621.8,-3424.1 l -38.5,-16.9"
         style="fill:#7640cc;fill-opacity:1;fill-rule:nonzero;stroke:none"
         id="path100" />
      <path
         d="m 15412.4,9089.3 c 79.7,-233.9 200.7,-479.1 51.1,-942.3 -16.7,-123.3 43.5,-170 43.5,-170 577.4,-192.8 1400.3,-17.4 1894,219.2 282.8,230.3 -103.4,668 -126,818.1 -240.8,1600.8 -766.3,1531.8 -1027.6,1531.8 -86.1,-99.8 -299.4,-264.6 -372.1,-90.5 -177.9,-76.4 -263.4,-474.3 -361.7,-628.7 -101.6,-160.7 -145.1,-290.2 -155,-404.3 -10.6,-121.9 17.3,-226.5 53.8,-333.3"
         style="fill:#3a72aa;fill-opacity:1;fill-rule:nonzero;stroke:none"
         id="path102" />
      <path
         d="m 15710.2,11038.7 c -16.9,0 -28.4,4.8 -29.4,5.2 -5.9,2.6 -8.7,9.5 -6.1,15.5 2.6,5.9 9.4,8.6 15.4,6.1 1.6,-0.7 36.8,-14.6 73.2,20 4.6,4.5 12.1,4.3 16.5,-0.4 4.5,-4.7 4.3,-12.1 -0.3,-16.5 -25.2,-24 -50.6,-29.9 -69.3,-29.9"
         style="fill:#c16256;fill-opacity:1;fill-rule:nonzero;stroke:none"
         id="path104" />
      <path
         d="m 15948.1,11382.9 c -1.4,0 -2.9,0.3 -4.4,0.9 l -108.6,43.9 c -6,2.4 -8.9,9.3 -6.4,15.3 2.4,6 9.3,8.9 15.2,6.5 l 108.6,-44 c 6,-2.4 8.9,-9.3 6.5,-15.3 -1.8,-4.5 -6.2,-7.3 -10.9,-7.3"
         style="fill:#c16256;fill-opacity:1;fill-rule:nonzero;stroke:none"
         id="path106" />
      <path
         d="m 15732.6,11440.2 h -98.1 c -6.5,0 -11.7,5.2 -11.7,11.7 0,6.5 5.2,11.7 11.7,11.7 h 98.1 c 6.5,0 11.7,-5.2 11.7,-11.7 0,-6.5 -5.2,-11.7 -11.7,-11.7"
         style="fill:#c16256;fill-opacity:1;fill-rule:nonzero;stroke:none"
         id="path108" />
      <path
         d="m 16889.4,10218.3 c 94.8,-431.8 165.2,-906.8 -14.1,-1330.2 -309.3,-618 -1112.5,-636 -1700.7,-493.6 -93.2,16.8 -205.8,50.7 -177.5,170.4 39.4,133.5 195.6,73 297,82.5 1085,34.5 1261.4,381.7 952.5,1382.1 -121.5,421 517.6,608.4 642.8,188.8"
         style="fill:#f99370;fill-opacity:1;fill-rule:nonzero;stroke:none"
         id="path110" />
      <path
         d="m 15143.2,8396.4 c 0,0 65.7,98.1 -2.6,257.2 0,0 39.3,16.3 75.2,-4.8 0,0 74.3,-120 -2.3,-269.6 0,0 -33.3,-9.4 -70.3,17.2"
         style="fill:#10325b;fill-opacity:1;fill-rule:nonzero;stroke:none"
         id="path112" />
      <path
         d="m 16118.8,10192.7 c -11.2,-107.1 42.5,-240.6 121.3,-413.4 78.9,-172.9 140.9,-383.7 69.1,-559.3 -71.7,-175.7 -199.8,-334.4 -429.3,-375.2 -209.9,-37.3 -427.5,-82.6 -451.4,-191.2 0,0 28.3,-169.2 -46.5,-300.7 0,0 86.1,-271.8 796.6,-183.7 710.6,88.2 1044.8,858.8 1084.8,1190.8 61.9,512.6 -220.3,994.6 -602.8,1147.8 -382.6,153.1 -524.5,-150.6 -541.8,-315.1"
         style="fill:#23659b;fill-opacity:1;fill-rule:nonzero;stroke:none"
         id="path114" />
      <path
         d="m 18002.4,3640.9 c 45.1,-40.4 91.7,-80.6 139.6,-120.6 241.7,53.9 465.9,452.4 465.9,452.4 -37.7,44.3 -73.9,88.8 -108.4,133.3 0,0 -197.1,-367.4 -497.1,-465.1"
         style="fill:#7640cc;fill-opacity:1;fill-rule:nonzero;stroke:none"
         id="path116" />
      <path
         d="m 15334.5,7432 258.6,174.5 -2858,4234.6 -258.6,-174.5 2858,-4234.6"
         style="fill:#eb5648;fill-opacity:1;fill-rule:nonzero;stroke:none"
         id="path118" />
      <path
         d="m 15334.5,7432 258.6,174.5 -1496,2216.5 -258.5,-174.5 1495.9,-2216.5"
         style="fill:#ce3932;fill-opacity:1;fill-rule:nonzero;stroke:none"
         id="path120" />
      <path
         d="m 11545.5,11424 c -52.2,0 -104.2,2.2 -156.1,6.5 99.6,343.5 259.1,699.3 452.2,1030.4 l 1412.8,663.9 162.1,76.1 h 0.1 c -29.9,-561.6 -311.2,-1103.7 -810.5,-1446.9 l -27,-18.2 c -317.9,-210.6 -677.7,-311.8 -1033.6,-311.8 m -963.1,264.9 c -54.3,32.3 -107.2,67.6 -158.4,105.7 v 0.1 l 162.9,76.5 5,2.3 c -5,-60.1 -8.2,-121.4 -9.5,-184.6 m -742.59,826.9 c -40.75,88.4 -74.06,178.7 -100.15,270.4 h 0.09 l 143.49,67.4 1279.46,601.3 c -78.8,-141.9 -155.3,-281.5 -225.5,-423.3 l -956.02,-449.3 -141.37,-66.5 m 3085.59,1450.1 c 64.8,125.1 121.3,254.6 169.7,387.3 53.2,-78.3 99.6,-159.2 139.5,-242 l -141.1,-66.3 -168.1,-79"
         style="fill:#e5f1ff;fill-opacity:1;fill-rule:nonzero;stroke:none"
         id="path122" />
      <path
         d="m 11389.4,11430.5 c -283.3,23.6 -560,111.1 -807,258.4 1.3,63.2 4.5,124.5 9.5,184.6 l 1249.7,587.4 c -193.1,-331.1 -352.6,-686.9 -452.2,-1030.4 m -452.2,1601.1 c 70.2,141.8 146.7,281.4 225.5,423.3 l 1784,838.3 143.3,67.4 c 1.7,-2.5 3.4,-4.9 5.1,-7.4 -48.4,-132.7 -104.9,-262.2 -169.7,-387.3 l -1988.2,-934.3"
         style="fill:#adb8e6;fill-opacity:1;fill-rule:nonzero;stroke:none"
         id="path124" />
      <path
         d="m 12579.1,11735.8 27,18.2 c -0.1,0 -0.2,-0.1 -0.3,-0.1 -8.9,-6.2 -17.8,-12.2 -26.7,-18.1"
         style="fill:#f39a91;fill-opacity:1;fill-rule:nonzero;stroke:none"
         id="path126" />
      <path
         d="m 9670.23,13380.7 c 21.04,476.4 222.9,940.1 585.27,1281.8 -155.1,-391.6 -280.93,-808.1 -419.89,-1204.1 l -3.05,-1.4 -162.28,-76.3 h -0.05"
         style="fill:#ffffff;fill-opacity:1;fill-rule:nonzero;stroke:none"
         id="path128" />
      <path
         d="m 9835.61,13458.4 c 138.96,396 264.79,812.5 419.89,1204.1 69.6,65.6 145.1,126.7 226.4,182.5 324.4,222.9 694.3,329.9 1060.3,329.9 105.8,0 211.3,-9 315.3,-26.6 -5.7,-78.1 -14.6,-159.4 -26.7,-243.6 -67.2,-224.1 -146.9,-428 -233,-618.2 l -1762.19,-828.1"
         style="fill:#e5f1ff;fill-opacity:1;fill-rule:nonzero;stroke:none"
         id="path130" />
      <path
         d="m 11597.8,14286.5 c 86.1,190.2 165.8,394.1 233,618.2 12.1,84.2 21,165.5 26.7,243.6 294.4,-49.9 576.7,-169.7 820.1,-354.4 l -0.1,-0.1 -161.8,-76 h -0.1 l -917.8,-431.3"
         style="fill:#adb8e6;fill-opacity:1;fill-rule:nonzero;stroke:none"
         id="path132" />
      <path
         d="m 9574.11,12803.2 c -6.14,24.4 -11.8,48.9 -17,73.5 l 49.33,-3.4 c -10.65,-23.6 -21.37,-46.9 -32.33,-70.1 m -28.29,130.9 c -22.43,123.7 -33.15,248.5 -32.48,372.9 l 156.89,73.7 c -1.04,-23.7 -1.64,-47.4 -1.79,-71.2 l -101.58,5.8 c -7.35,-142.9 -14.27,-268.2 -21.04,-381.2 m 106.67,44.7 c 5.21,89.2 10.53,186.1 16.09,292.9 1.01,-72.3 6.18,-144.6 15.59,-216.7 -10.42,-25.6 -20.99,-51 -31.68,-76.2"
         style="fill:#ffffff;fill-opacity:1;fill-rule:nonzero;stroke:none"
         id="path134" />
      <path
         d="m 9606.44,12873.3 -49.33,3.4 c -4.05,19.1 -7.81,38.2 -11.29,57.4 6.77,113 13.69,238.3 21.04,381.2 l 101.58,-5.8 c -0.08,-12.6 -0.03,-25.2 0.14,-37.8 -5.56,-106.8 -10.88,-203.7 -16.09,-292.9 -15.07,-35.6 -30.38,-70.7 -46.05,-105.5"
         style="fill:#eaf0ff;fill-opacity:1;fill-rule:nonzero;stroke:none"
         id="path136" />
      <path
         d="m 9597.14,12719.2 c -8.3,27.9 -15.98,55.9 -23.03,84 10.96,23.2 21.68,46.5 32.33,70.1 15.67,34.8 30.98,69.9 46.05,105.5 10.69,25.2 21.26,50.6 31.68,76.2 11.79,-90.2 30.26,-180.2 55.49,-268.8 l -142.52,-67 M 13099.3,14365 c 20.4,56.4 39.1,113.1 56.5,170.5 21.3,-27.9 42.1,-56.5 62.2,-85.7 5,-7.4 10,-14.7 14.9,-22.1 l -133.6,-62.7"
         style="fill:#e5f1ff;fill-opacity:1;fill-rule:nonzero;stroke:none"
         id="path138" />
      <path
         d="m 13090,14360.6 c -0.2,0.2 -0.4,0.6 -0.6,0.8 -116.6,169.8 -256.3,314.4 -411.8,432.5 l 157.3,74 c 117.3,-96.4 225.2,-207.4 320.9,-332.4 -17.4,-57.4 -36.1,-114.1 -56.5,-170.5 l -9.3,-4.4"
         style="fill:#adb8e6;fill-opacity:1;fill-rule:nonzero;stroke:none"
         id="path140" />
      <path
         d="m 9684.17,13055 c -9.41,72.1 -14.58,144.4 -15.59,216.7 0.65,12.4 1.3,25 1.96,37.7 l -2.1,0.1 c 0.15,23.8 0.75,47.5 1.79,71.2 h 0.05 l 162.28,76.3 3.05,1.4 c -48.29,-137.6 -98.16,-272.6 -151.44,-403.4"
         style="fill:#ffffff;fill-opacity:1;fill-rule:nonzero;stroke:none"
         id="path142" />
      <path
         d="m 9668.58,13271.7 c -0.17,12.6 -0.22,25.2 -0.14,37.8 l 2.1,-0.1 c -0.66,-12.7 -1.31,-25.3 -1.96,-37.7"
         style="fill:#f2f6ff;fill-opacity:1;fill-rule:nonzero;stroke:none"
         id="path144" />
      <path
         d="m 9739.66,12786.2 c -25.23,88.6 -43.7,178.6 -55.49,268.8 53.28,130.8 103.15,265.8 151.44,403.4 l 1762.19,828.1 c -136.9,-302.7 -290,-570.7 -435.1,-831.6 l -1279.46,-601.3 -143.49,-67.4 h -0.09"
         style="fill:#eff7ff;fill-opacity:1;fill-rule:nonzero;stroke:none"
         id="path146" />
      <path
         d="m 11162.7,13454.9 c 145.1,260.9 298.2,528.9 435.1,831.6 l 917.8,431.3 h 0.1 l 161.8,76 0.1,0.1 c 155.5,-118.1 295.2,-262.7 411.8,-432.5 0.2,-0.2 0.4,-0.6 0.6,-0.8 l -143.3,-67.4 -1784,-838.3"
         style="fill:#ced4f0;fill-opacity:1;fill-rule:nonzero;stroke:none"
         id="path148" />
      <path
         d="m 10265.9,11720.3 c -148.6,120.2 -282.6,263.5 -396.16,428.8 -66.48,96.7 -123.45,197.3 -170.99,300.5 l 141.05,66.2 h 0.01 c 44.08,-95.5 96.85,-188.7 158.46,-278.4 120.13,-174.7 264.53,-322.8 425.73,-442.8 l -158.1,-74.3 m 3150.7,1480.6 c 16.4,307.4 -42.5,620.6 -182,910.3 l 141.3,66.4 c 135.9,-282.1 203.9,-589.4 199.5,-902 l -158.8,-74.7"
         style="fill:#e5f1ff;fill-opacity:1;fill-rule:nonzero;stroke:none"
         id="path150" />
      <path
         d="m 10424,11794.6 c -161.2,120 -305.6,268.1 -425.73,442.8 -61.61,89.7 -114.38,182.9 -158.46,278.4 l 141.37,66.5 956.02,449.3 c -173.4,-350.7 -308.3,-714.9 -345.3,-1158.1 l -5,-2.3 -162.9,-76.5 v -0.1 m 1417.6,666.3 c 199.3,341.5 434.5,656.8 676.9,905.4 159.8,182.3 295.5,384.3 406.9,599.6 l 168.1,79 141.1,66.3 c 139.5,-289.7 198.4,-602.9 182,-910.3 h -0.1 l -162.1,-76.1 -1412.8,-663.9"
         style="fill:#eff7ff;fill-opacity:1;fill-rule:nonzero;stroke:none"
         id="path152" />
      <path
         d="m 10591.9,11873.5 c 37,443.2 171.9,807.4 345.3,1158.1 l 1988.2,934.3 c -111.4,-215.3 -247.1,-417.3 -406.9,-599.6 -242.4,-248.6 -477.6,-563.9 -676.9,-905.4 l -1249.7,-587.4"
         style="fill:#ced4f0;fill-opacity:1;fill-rule:nonzero;stroke:none"
         id="path154" />
      <path
         d="m 13093.5,14044.9 c 757.7,-1569.7 -1077.1,-3138.3 -2506.6,-2173.7 -511.6,331.8 -820.07,977.1 -754.34,1585.8 151,1717.9 2515.34,2145.6 3260.94,587.9 z m -2827.6,-2324.5 c 1112.7,-967.9 3051.6,-274.4 3275.1,1208.6 347.9,1736.4 -1674.8,3076 -3147.4,2044.6 -1121.04,-742.8 -1163.68,-2446.4 -127.7,-3253.2"
         style="fill:#ce3932;fill-opacity:1;fill-rule:nonzero;stroke:none"
         id="path156" />
      <path
         d="m 14775.9,8817.3 85.5,-126.7 c -81.9,-25 -168.5,-25.5 -168.9,-26 -71.7,8.1 -195.9,8.9 -195.9,8.9 -132.9,-73.9 123.4,-81.4 160.3,-98.1 l -0.2,-1.6 c 0,0 8.9,-4.4 -101.7,6.1 -150.1,-78.8 70.9,-90 112.6,-95.3 l 0.3,-0.8 -38.2,-7.6 c -144.1,-92.9 38.4,-91.7 80.1,-83.1 l 0.7,-1.1 c -0.7,1.1 -14.2,-14.4 -14.2,-14.4 -65.5,-65.2 43.4,-77.9 80.8,-65.9 29.9,-4.6 181.4,31.2 351.6,114.6 55.8,27.3 20.7,197.4 -29.5,232.1 -47.1,32.5 -113.3,74.7 -139,86.2 -29,13 -102.8,89.8 -184.3,72.7"
         style="fill:#f99370;fill-opacity:1;fill-rule:nonzero;stroke:none"
         id="path158" />
      <path
         d="m 13252.2,10570.4 c -119.1,-66.3 -186.3,95.4 -37.4,86.4 l -2.1,-1.1 c 65.1,34.8 101.3,-54.1 39.5,-85.3"
         style="fill:#f99370;fill-opacity:1;fill-rule:nonzero;stroke:none"
         id="path160" />
      <path
         d="m 13188,10636.2 c -148.2,-49.6 -155.5,140.6 -28.3,93.3 -3,0.3 13,1 10.2,1.1 71.5,21.4 81.3,-77.3 18.1,-94.4"
         style="fill:#f99370;fill-opacity:1;fill-rule:nonzero;stroke:none"
         id="path162" />
      <path
         d="m 13118.5,10702.9 -52.1,-0.9 c -72.8,1.2 -45.4,102.9 15.1,100 l 52.1,1 c 72.8,-1.3 45.4,-102.9 -15.1,-100.1"
         style="fill:#f99370;fill-opacity:1;fill-rule:nonzero;stroke:none"
         id="path164" />
      <path
         d="m 13067.2,10770.3 -52.1,-0.9 c -72.7,1.2 -45.4,102.9 15.2,100 l 52,1 c 72.8,-1.3 45.5,-103 -15.1,-100.1"
         style="fill:#f99370;fill-opacity:1;fill-rule:nonzero;stroke:none"
         id="path166" />
      <path
         d="m 13538,10673.5 c 0,0 19.9,232.9 -215.4,297.2 -126.6,34.5 -105.8,-60.9 -24.7,-87.6 81,-26.6 195,-164.7 195,-164.7 l 45.1,-44.9"
         style="fill:#f99370;fill-opacity:1;fill-rule:nonzero;stroke:none"
         id="path168" />
      <path
         d="m 13838.6,2726.3 -5680.93,-0.5 c 0,0 -46.95,306.8 251.75,1022 183.78,440.1 1181.35,969.6 1198.71,-99.3 262.68,1161.7 1750.57,1436.3 1303.67,-408.6 4.2,9.2 319.8,693.5 882.3,470.8 566.2,-224.1 487.5,-714.6 849.5,-691.2 361.9,23.3 1050.2,467.6 1195,-293.2"
         style="fill:#9ab1e8;fill-opacity:1;fill-rule:nonzero;stroke:none"
         id="path170" />
      <path
         d="M 13204.8,2725.8 H 8530.44 c 0,0 30.76,991.8 484.87,1328.7 443.61,329 963.19,-135.5 1119.39,-761.1 204.3,-510.6 668.8,282.5 992.5,306.2 56.8,12.6 114.7,13.9 173.5,-0.5 295.3,-72.4 274.5,-622.7 702.2,-622.7 467.8,0 456.2,256.1 785.1,262.6 378.9,7.4 416.8,-513.2 416.8,-513.2"
         style="fill:#abc1ef;fill-opacity:1;fill-rule:nonzero;stroke:none"
         id="path172" />
      <path
         d="m 8668.03,5699.3 c -86.76,91.7 -1055.37,-631.7 -1138.02,-785.6 -17.47,159.4 -53.81,345.6 -121.8,550.7 135.17,7.7 1052.91,959 962.68,1051 -101.38,76.2 -940.44,-819.1 -986.93,-980.8 -57.4,159.5 -134.15,329.5 -236,506.7 115.51,-18.6 891.6,1151.3 778.68,1214.7 -111.25,64.7 -820.3,-1034.8 -802.8,-1173.5 -73.23,123.5 -158.46,250.2 -258.14,379.2 132.2,59.1 758.72,1190.2 650,1258.6 -117.51,46.6 -691.21,-1025.3 -698.31,-1197.4 -85.67,107.3 -187.22,220.5 -290.29,327 122.11,85.1 565.88,1287 448.78,1339.1 -122.39,27.1 -519.89,-1096.4 -507.96,-1276.7 -106.58,113 -205.69,221.3 -297.73,324.8 122.74,97.5 558.58,1278.4 442.85,1332.3 -120.96,26.2 -510.35,-1070.3 -506.4,-1260.4 -109.74,125.2 -208.81,243 -298.46,353.7 122.41,90.7 562.68,1283.3 446.2,1336.2 -121.05,26.3 -510.8,-1071.5 -506.49,-1261.1 -98.73,124.2 -184.87,238.7 -260.1,343.6 120.15,54.4 581.68,1305.5 461.38,1352 -123.01,27.8 -525.32,-1111.2 -508.62,-1285.5 -100.69,143.8 -179.55,267.8 -241.17,372.3 113.6,64 436.49,1363.1 311.59,1395.4 -122.43,12.8 -387.56,-1109.1 -365.38,-1301.4 -198.31,331 -106.39,440.1 -255.92,887.5 -264.61,903.6 -459.55,846.3 -190.74,-56.3 136.98,-464.6 209,-541.3 350.05,-825.1 -140.83,160 -1047.21,753.2 -1120.53,662 -79.11,-102.5 1104.26,-869.7 1199.76,-803.1 58.84,-100 133.25,-217.2 226.99,-352 -152.06,130.3 -1196.67,560.9 -1255.43,455 -56.68,-116.4 1244.47,-640.2 1329.72,-559.9 73.21,-101.4 156.6,-211.6 251.38,-330.7 -182.84,95.9 -1271.47,304.2 -1306.57,190.2 -16.58,-127.6 1265.64,-361.2 1389.77,-293.3 85.84,-105.1 180.17,-216.6 283.8,-334.6 -173.02,77.3 -1335.53,144 -1357.07,22.4 -3.34,-128.9 1328.78,-189.4 1425.46,-99.6 92.49,-103.7 191.98,-212.1 298.96,-325.4 -195.41,43.2 -1319.98,-69.9 -1321.85,-190.9 25.47,-125.2 1274.15,13.3 1399.61,109.1 102.06,-105.9 196.56,-214.2 279.33,-318.9 -131.56,72.3 -1403.39,-49.5 -1399.86,-177.5 6.51,-129.3 1392.42,22 1435.33,132.2 94.17,-122.5 175.14,-242.8 244.86,-360 -145.18,66.6 -1389.95,-52.9 -1388.88,-180.3 17.25,-127.8 1338.94,18.6 1422.79,122 99.41,-175 173.8,-342.4 228.89,-499 -127.63,81.8 -1400.83,62.6 -1408.03,-65.2 7.07,-128.8 1335.3,-88.9 1427.73,7.3 65.28,-199.2 99.65,-379.3 115.96,-533.1 -154.57,82.5 -1359.16,153.8 -1380.24,29.7 7.85,-126.6 1235.16,-182.6 1387.59,-112.5 32.5,-458.2 -79.26,-755 -80.64,-758.6 l 74.76,-29 c 5.14,13.2 122.23,321.7 84.92,806.8 135.92,-14.1 1202.8,759.3 1130.54,865.9"
         style="fill:#9358e0;fill-opacity:1;fill-rule:nonzero;stroke:none"
         id="path174" />
      <path
         d="m 8501.07,4953.6 c 50,53.4 613.3,-362.9 661.63,-451.9 9.66,92.4 30.18,200.4 68.98,319.4 -78.34,4.1 -612.81,552.7 -560.8,606.2 58.53,44.5 547.25,-471.9 574.65,-565.4 32.8,92.5 76.77,191.3 135.28,294.2 -66.87,-11.1 -519.9,664.5 -454.66,701.6 64.28,37.8 478.26,-597.2 468.52,-677.6 42.07,71.7 91.09,145.4 148.47,220.5 -76.76,33.8 -443.02,687.4 -380.22,727.3 67.95,27.3 403.43,-592.1 408.04,-691.8 49.33,62.4 107.84,128.4 167.25,190.3 -70.99,49 -331.56,744.1 -263.87,774.6 70.84,16.1 304.38,-633.7 297.98,-738.2 61.43,65.8 118.55,128.8 171.58,189 -71.4,56.1 -327.32,739.1 -260.42,770.6 70.01,15.6 298.77,-618.6 297.03,-728.7 63.19,72.8 120.29,141.3 171.89,205.7 -71.2,52.3 -329.69,741.9 -262.35,773 70.06,15.5 299.05,-619.4 297.05,-729.3 56.9,72.3 106.5,138.8 149.7,199.8 -69.7,31.2 -340.73,754.8 -271.2,782.1 71.2,16.4 307.6,-642.4 298.4,-743.4 58,83.6 103.3,155.7 138.7,216.4 -66,36.8 -256.8,788.5 -184.5,807.6 70.8,7.8 227.7,-641.5 215.4,-753 113.9,192.4 60.4,255.3 145.7,515 150.7,524.3 263.9,491.7 110.7,-32.1 -78,-269.6 -119.5,-314.2 -200.4,-479.1 81.1,93.2 604.5,439.4 647.3,386.9 46.1,-59.2 -637.3,-507.1 -692.9,-468.8 -33.8,-58.1 -76.5,-126.3 -130.5,-204.6 87.8,75.9 691.8,328.4 726.1,267.2 33.2,-67.3 -719.2,-374.5 -768.8,-328.2 -42.1,-59 -90.1,-123.1 -144.7,-192.3 105.7,56 735.8,179.8 756.5,113.9 10,-73.9 -732.3,-212.9 -804.4,-174 -49.4,-61.1 -103.8,-126 -163.5,-194.6 100,45.2 773.4,87.3 786.2,16.9 2.3,-74.7 -769.3,-113.6 -825.58,-61.8 -53.29,-60.4 -110.63,-123.5 -172.29,-189.4 113.1,25.6 764.97,-36.7 766.47,-106.9 -14.4,-72.6 -738.32,4.1 -811.29,59.2 -58.83,-61.6 -113.27,-124.6 -160.92,-185.5 76.02,42.2 813.31,-24.7 811.61,-98.9 -3.4,-74.9 -806.85,8.8 -832.03,72.5 -54.21,-71.2 -100.79,-141.1 -140.84,-209.3 83.93,39 805.47,-26.6 805.27,-100.4 -9.7,-74.1 -775.88,6.9 -824.76,66.6 -57.09,-101.7 -99.71,-199 -131.18,-289.8 73.72,47.8 811.44,40.3 816.04,-33.8 -3.8,-74.6 -773.45,-55.3 -827.28,0.2 -37.25,-115.6 -56.65,-220.1 -65.66,-309.2 89.32,48.2 787.06,93 799.64,21.2 -4.2,-73.4 -715.14,-109.4 -803.66,-69.2 -17.52,-265.6 48.09,-437.2 48.9,-439.3 l -43.23,-17 c -3.02,7.6 -71.75,186 -51.52,467.1 -78.71,-8.5 -699.08,436.5 -657.52,498.5"
         style="fill:#677cc1;fill-opacity:1;fill-rule:nonzero;stroke:none"
         id="path176" />
      <path
         d="m 8310.34,2729 c 0,0 818.68,1244.5 2504.76,1343.4 0,0 -953,-1163.6 -2504.76,-1343.4"
         style="fill:#f49f9f;fill-opacity:1;fill-rule:nonzero;stroke:none"
         id="path178" />
      <path
         d="m 8329.28,2731.4 c 0,0 241.06,1215.2 1978.62,2150.9 0,0 -420.51,-1306.6 -1978.62,-2150.9"
         style="fill:#f9c0c0;fill-opacity:1;fill-rule:nonzero;stroke:none"
         id="path180" />
      <path
         d="m 8329.28,2731.4 c 0,0 -71.12,1488 1233.45,2560.7 0,0 -85.07,-1501.7 -1233.45,-2560.7"
         style="fill:#f49f9f;fill-opacity:1;fill-rule:nonzero;stroke:none"
         id="path182" />
      <path
         d="m 8329.28,2731.4 c 0,0 -459.16,1512.1 475.09,2936.9 0,0 534.95,-1992.6 -475.09,-2936.9"
         style="fill:#f9c0c0;fill-opacity:1;fill-rule:nonzero;stroke:none"
         id="path184" />
      <path
         d="m 8329.28,2731.4 c 0,0 -784.15,1655.7 -322.7,2908.7 0,0 719.91,-1552.3 322.7,-2908.7"
         style="fill:#f49f9f;fill-opacity:1;fill-rule:nonzero;stroke:none"
         id="path186" />
      <path
         d="m 8339.17,2730.6 c 0,0 -1850.8,-134.7 -2806.68,797.5 0,0 1730.12,118.3 2806.68,-797.5"
         style="fill:#f49f9f;fill-opacity:1;fill-rule:nonzero;stroke:none"
         id="path188" />
      <path
         d="m 8339.17,2730.6 c 0,0 -1567.9,197.3 -2487.88,1631.3 0,0 2037.55,-324 2487.88,-1631.3"
         style="fill:#f9c0c0;fill-opacity:1;fill-rule:nonzero;stroke:none"
         id="path190" />
      <path
         d="m 8339.17,2730.6 c 0,0 -1409.41,657.3 -1856.97,2285.9 0,0 1358.26,-805.5 1856.97,-2285.9"
         style="fill:#f49f9f;fill-opacity:1;fill-rule:nonzero;stroke:none"
         id="path192" />
      <path
         d="m 8339.17,2730.6 c 0,0 -1011.27,715.6 -1157.11,2683.7 0,0 1021.55,-916.8 1157.11,-2683.7"
         style="fill:#f9c0c0;fill-opacity:1;fill-rule:nonzero;stroke:none"
         id="path194" />
    </g>
  </g>
</svg>
